<svg xmlns="http://www.w3.org/2000/svg" xmlns:xlink="http://www.w3.org/1999/xlink" width="500" zoomAndPan="magnify" viewBox="0 0 375 374.999991" height="500" preserveAspectRatio="xMidYMid meet" version="1.0"><defs><clipPath id="31f6985020"><path d="M 187.5 0 C 83.945312 0 0 83.945312 0 187.5 C 0 291.054688 83.945312 375 187.5 375 C 291.054688 375 375 291.054688 375 187.5 C 375 83.945312 291.054688 0 187.5 0 Z M 187.5 0 " clip-rule="nonzero"/></clipPath><clipPath id="2c72a0ae69"><path d="M 143 197 L 231 197 L 231 299.808594 L 143 299.808594 Z M 143 197 " clip-rule="nonzero"/></clipPath></defs><rect x="-37.5" width="450" fill="#ffffff" y="-37.499999" height="449.999989" fill-opacity="1"/><rect x="-37.5" width="450" fill="#ffffff" y="-37.499999" height="449.999989" fill-opacity="1"/><g clip-path="url(#31f6985020)"><rect x="-37.5" width="450" fill="#007bff" y="-37.499999" height="449.999989" fill-opacity="1"/></g><path fill="#ffc536" d="M 130.328125 268.511719 C 124.144531 274.699219 101.609375 281.355469 88.992188 284.714844 C 85.042969 285.765625 81.441406 282.160156 82.492188 278.210938 C 85.855469 265.59375 92.523438 243.066406 98.707031 236.878906 C 107.4375 228.144531 121.597656 228.125 130.328125 236.859375 C 139.082031 245.613281 139.058594 259.777344 130.328125 268.511719 Z M 130.328125 268.511719 " fill-opacity="1" fill-rule="nonzero"/><path fill="#f34624" d="M 130.332031 254.90625 C 127.140625 258.097656 116.3125 261.511719 108.953125 263.550781 C 105.722656 264.445312 102.761719 261.484375 103.660156 258.25 C 105.699219 250.890625 109.117188 240.066406 112.308594 236.875 C 117.285156 231.894531 125.355469 231.882812 130.332031 236.863281 C 135.320312 241.855469 135.308594 249.925781 130.332031 254.90625 Z M 130.332031 254.90625 " fill-opacity="1" fill-rule="nonzero"/><path fill="#2c3642" d="M 155.542969 245.6875 L 144.8125 256.425781 C 142.996094 258.242188 140.050781 258.242188 138.234375 256.425781 L 110.789062 228.972656 C 108.972656 227.15625 108.972656 224.207031 110.789062 222.390625 L 121.523438 211.65625 Z M 155.542969 245.6875 " fill-opacity="1" fill-rule="nonzero"/><g clip-path="url(#2c72a0ae69)"><path fill="#f34624" d="M 207.113281 274.957031 C 191.933594 287.417969 170.886719 296.179688 149.6875 299.101562 C 145.085938 299.734375 142.035156 294.625 144.699219 290.816406 C 156.03125 274.59375 162.855469 256.730469 164.917969 239.320312 L 222.351562 197.089844 C 234.964844 224.136719 234.464844 252.523438 207.113281 274.957031 Z M 207.113281 274.957031 " fill-opacity="1" fill-rule="nonzero"/></g><path fill="#f34624" d="M 168.820312 143.542969 L 126.605469 200.996094 C 109.21875 203.074219 91.351562 209.890625 75.128906 221.226562 C 71.320312 223.886719 66.214844 220.835938 66.847656 216.230469 C 69.773438 195.03125 78.542969 173.988281 90.980469 158.789062 C 113.410156 131.425781 141.808594 130.941406 168.820312 143.542969 Z M 168.820312 143.542969 " fill-opacity="1" fill-rule="nonzero"/><path fill="#ededed" d="M 233.523438 206.375 L 161.292969 252.789062 C 157.613281 255.15625 152.78125 254.632812 149.6875 251.539062 L 115.660156 217.5 C 112.566406 214.40625 112.046875 209.574219 114.410156 205.890625 L 160.808594 133.636719 C 165.546875 126.269531 171.003906 119.492188 177.023438 113.472656 C 202.082031 88.402344 237.15625 75.421875 272.847656 78.53125 C 281.273438 79.265625 287.90625 85.925781 288.632812 94.355469 C 292.4375 138.609375 271.535156 181.941406 233.523438 206.375 Z M 233.523438 206.375 " fill-opacity="1" fill-rule="nonzero"/><path fill="#f34624" d="M 283.210938 141.722656 C 288.074219 126.640625 290.027344 110.5625 288.632812 94.351562 C 287.90625 85.925781 281.277344 79.265625 272.851562 78.53125 C 256.621094 77.117188 240.527344 79.066406 225.4375 83.929688 Z M 283.210938 141.722656 " fill-opacity="1" fill-rule="nonzero"/><path fill="#2c3642" d="M 236.753906 173.679688 C 224.78125 185.652344 205.429688 185.652344 193.496094 173.714844 C 181.523438 161.738281 181.523438 142.382812 193.496094 130.40625 C 205.429688 118.46875 224.78125 118.46875 236.753906 130.445312 C 248.6875 142.382812 248.6875 161.738281 236.753906 173.679688 Z M 236.753906 173.679688 " fill-opacity="1" fill-rule="nonzero"/><path fill="#00aeff" d="M 238.453125 149.234375 C 238.546875 150 238.601562 150.765625 238.617188 151.535156 C 238.636719 152.304688 238.617188 153.070312 238.558594 153.839844 C 238.5 154.605469 238.402344 155.371094 238.269531 156.128906 C 238.136719 156.886719 237.96875 157.632812 237.761719 158.375 C 237.554688 159.117188 237.3125 159.847656 237.03125 160.5625 C 236.753906 161.28125 236.441406 161.984375 236.09375 162.667969 C 235.746094 163.355469 235.367188 164.023438 234.953125 164.671875 C 234.542969 165.324219 234.097656 165.949219 233.625 166.554688 C 233.148438 167.160156 232.644531 167.742188 232.113281 168.296875 C 231.582031 168.855469 231.023438 169.382812 230.441406 169.882812 C 229.859375 170.386719 229.25 170.859375 228.621094 171.300781 C 227.992188 171.742188 227.339844 172.152344 226.671875 172.527344 C 226 172.90625 225.3125 173.25 224.609375 173.5625 C 223.90625 173.871094 223.1875 174.148438 222.457031 174.386719 C 221.726562 174.625 220.988281 174.828125 220.234375 174.996094 C 219.484375 175.164062 218.726562 175.292969 217.964844 175.386719 C 217.199219 175.480469 216.433594 175.535156 215.664062 175.550781 C 214.894531 175.566406 214.128906 175.546875 213.359375 175.488281 C 212.59375 175.429688 211.832031 175.335938 211.074219 175.203125 C 210.316406 175.070312 209.566406 174.898438 208.824219 174.691406 C 208.085938 174.484375 207.355469 174.242188 206.640625 173.964844 C 205.921875 173.6875 205.21875 173.375 204.535156 173.027344 C 203.847656 172.679688 203.179688 172.296875 202.53125 171.886719 C 201.882812 171.472656 201.253906 171.027344 200.648438 170.554688 C 200.042969 170.078125 199.460938 169.574219 198.90625 169.042969 C 198.351562 168.511719 197.820312 167.953125 197.320312 167.371094 C 196.820312 166.785156 196.347656 166.179688 195.90625 165.550781 C 195.464844 164.921875 195.054688 164.269531 194.675781 163.597656 C 194.300781 162.929688 193.957031 162.242188 193.644531 161.539062 C 193.335938 160.832031 193.058594 160.117188 192.820312 159.386719 C 192.582031 158.652344 192.378906 157.914062 192.210938 157.160156 C 192.042969 156.410156 191.914062 155.652344 191.820312 154.890625 C 191.730469 154.125 191.671875 153.359375 191.65625 152.589844 C 191.640625 151.820312 191.660156 151.050781 191.71875 150.285156 C 191.777344 149.515625 191.871094 148.753906 192.003906 147.996094 C 192.136719 147.238281 192.308594 146.488281 192.515625 145.746094 C 192.722656 145.007812 192.964844 144.277344 193.242188 143.558594 C 193.519531 142.84375 193.832031 142.140625 194.179688 141.453125 C 194.527344 140.765625 194.90625 140.097656 195.320312 139.449219 C 195.734375 138.800781 196.175781 138.171875 196.652344 137.566406 C 197.125 136.960938 197.628906 136.382812 198.160156 135.824219 C 198.691406 135.269531 199.25 134.742188 199.832031 134.238281 C 200.417969 133.738281 201.023438 133.265625 201.652344 132.824219 C 202.285156 132.382812 202.933594 131.972656 203.605469 131.59375 C 204.273438 131.21875 204.960938 130.871094 205.664062 130.5625 C 206.367188 130.253906 207.085938 129.976562 207.816406 129.738281 C 208.546875 129.496094 209.289062 129.292969 210.039062 129.125 C 210.789062 128.960938 211.546875 128.828125 212.3125 128.738281 C 213.074219 128.644531 213.839844 128.589844 214.609375 128.574219 C 215.378906 128.554688 216.148438 128.574219 216.914062 128.632812 C 217.679688 128.691406 218.445312 128.789062 219.203125 128.921875 C 219.960938 129.054688 220.707031 129.222656 221.449219 129.429688 C 222.191406 129.636719 222.917969 129.878906 223.636719 130.160156 C 224.351562 130.4375 225.054688 130.75 225.742188 131.097656 C 226.429688 131.445312 227.09375 131.824219 227.746094 132.238281 C 228.394531 132.652344 229.019531 133.09375 229.625 133.570312 C 230.230469 134.042969 230.8125 134.546875 231.367188 135.078125 C 231.925781 135.609375 232.453125 136.167969 232.953125 136.753906 C 233.457031 137.335938 233.925781 137.945312 234.367188 138.574219 C 234.808594 139.203125 235.21875 139.855469 235.597656 140.523438 C 235.976562 141.195312 236.320312 141.882812 236.628906 142.585938 C 236.941406 143.289062 237.214844 144.007812 237.453125 144.738281 C 237.695312 145.46875 237.898438 146.210938 238.066406 146.960938 C 238.230469 147.714844 238.363281 148.472656 238.453125 149.234375 Z M 238.453125 149.234375 " fill-opacity="1" fill-rule="nonzero"/></svg>